<?xml version="1.0" encoding="UTF-8"?>
<svg enable-background="new 0 0 512 512" version="1.1" viewBox="0 0 512 512" xml:space="preserve" xmlns="http://www.w3.org/2000/svg">
		<path d="m315.79 19.932h-59.796v37.372h41.109v70.384c0 61.82-50.297 112.12-112.12 112.12s-112.12-50.296-112.12-112.12v-70.385h39.864v-37.372h-58.55c-10.321 0-18.686 8.365-18.686 18.686v89.071c0 82.431 67.058 149.49 149.49 149.49s149.49-67.058 149.49-149.49v-89.071c0-10.321-8.365-18.686-18.686-18.686z"/>
		<path d="m388.67 292.75v88.448c0 51.518-41.913 93.431-93.431 93.431s-93.431-41.913-93.431-93.431v-122.08h-37.372v122.08c0 72.122 58.674 130.8 130.8 130.8 72.122 0 130.8-58.681 130.8-130.8v-88.448h-37.372z"/>
		<path d="m407.36 171.91c-38.132 0-69.145 31.013-69.145 69.139 0 38.12 31.013 69.139 69.139 69.139s69.139-31.019 69.145-69.139c-1e-3 -38.126-31.019-69.139-69.139-69.139zm-6e-3 100.91c-17.521 0-31.773-14.251-31.773-31.766s14.251-31.766 31.773-31.766c17.515 0 31.766 14.251 31.766 31.766s-14.251 31.766-31.766 31.766z"/>
		<path d="m112.11 0c-10.321 0-18.686 8.365-18.686 18.686v39.864c0 10.321 8.365 18.686 18.686 18.686s18.686-8.365 18.686-18.686v-39.864c0-10.321-8.365-18.686-18.686-18.686z"/>
		<path d="M256.62,0c-10.321,0-18.686,8.365-18.686,18.686V58.55c0,10.321,8.365,18.686,18.686,18.686s18.686-8.365,18.686-18.686    V18.686C275.306,8.365,266.941,0,256.62,0z"/>
</svg>