<svg xmlns="http://www.w3.org/2000/svg" xmlns:xlink="http://www.w3.org/1999/xlink" viewBox="0 0 1005.203 1072.599"><defs><style>.a{fill:#6c9af4;}.b{filter:url(#e);}.c{filter:url(#c);}.d{filter:url(#a);}</style><filter id="a" x="0" y="0" width="1005.203" height="1072.599" filterUnits="userSpaceOnUse"><feOffset dx="4" dy="11" input="SourceAlpha"/><feGaussianBlur stdDeviation="9.5" result="b"/><feFlood flood-opacity="0.161"/><feComposite operator="in" in2="b"/><feComposite in="SourceGraphic"/></filter><filter id="c" x="150.399" y="148.576" width="716.088" height="762.934" filterUnits="userSpaceOnUse"><feOffset dx="4" dy="11" input="SourceAlpha"/><feGaussianBlur stdDeviation="9.5" result="d"/><feFlood flood-opacity="0.161"/><feComposite operator="in" in2="d"/><feComposite in="SourceGraphic"/></filter><filter id="e" x="298.31" y="307" width="420.265" height="446.086" filterUnits="userSpaceOnUse"><feOffset dx="4" dy="11" input="SourceAlpha"/><feGaussianBlur stdDeviation="9.5" result="f"/><feFlood flood-opacity="0.161"/><feComposite operator="in" in2="f"/><feComposite in="SourceGraphic"/></filter></defs><g transform="translate(-947.297 -881.5)"><g class="d" transform="matrix(1, 0, 0, 1, 947.3, 881.5)"><path class="a" d="M1001.7,1416.731c45.769-34.751,948.2-471.745,948.2-471.745v1015.6Z" transform="translate(-977.2 -927.49)"/></g><g class="c" transform="matrix(1, 0, 0, 1, 947.3, 881.5)"><path class="a" d="M1001.7,1272.892c31.814-24.155,659.088-327.906,659.088-327.906V1650.92Z" transform="translate(-826.8 -778.91)"/></g><g class="b" transform="matrix(1, 0, 0, 1, 947.3, 881.5)"><path class="a" d="M1001.7,1125.716c17.535-13.313,363.265-180.73,363.265-180.73v389.086Z" transform="translate(-678.89 -620.49)"/></g></g></svg>