<?xml version="1.0" encoding="UTF-8"?>
<svg enable-background="new 0 0 405.333 405.333" fill="white" version="1.1" viewBox="0 0 405.33 405.33" xml:space="preserve" xmlns="http://www.w3.org/2000/svg">
		<path d="m202.67 0c-94.294 0-170.67 10.667-170.67 85.333v213.33c0 18.88 8.32 35.627 21.333 47.36v37.974c0 11.733 9.6 21.333 21.333 21.333h21.334c11.84 0 21.333-9.6 21.333-21.333v-21.333h170.67v21.333c0 11.733 9.493 21.333 21.333 21.333h21.333c11.733 0 21.333-9.6 21.333-21.333v-37.973c13.013-11.733 21.333-28.48 21.333-47.36v-213.33c1e-3 -74.666-76.372-85.333-170.66-85.333zm-96 320c-17.707 0-32-14.293-32-32s14.293-32 32-32 32 14.293 32 32-14.294 32-32 32zm192 0c-17.707 0-32-14.293-32-32s14.293-32 32-32 32 14.293 32 32-14.294 32-32 32zm32-128h-256v-106.67h256v106.67z"/>
</svg>
