<?xml version="1.0" encoding="UTF-8"?>
<!DOCTYPE svg  PUBLIC '-//W3C//DTD SVG 1.1//EN'  'http://www.w3.org/Graphics/SVG/1.1/DTD/svg11.dtd'>
<svg enable-background="new 0 0 34.546 34.546" fill="white" version="1.1" viewBox="0 0 34.546 34.546" xml:space="preserve" xmlns="http://www.w3.org/2000/svg">
	<path d="m29.33 19.339c-2.326-0.545-5.3-1.969-6.377-3.737-0.603-0.984-0.666-2.094-0.179-3.042 0.027-0.051 0.074-0.128 0.109-0.188-0.028-0.209 0.021-0.486 0.172-0.847 0.011-0.024 0.012-0.027 0.02-0.044h-11.953c6e-3 0.014 6e-3 0.014 0.014 0.032 0 0 1e-3 1e-3 1e-3 2e-3 0.268 0.418 0.502 0.792 0.627 1.033 0.495 0.961 0.431 2.07-0.17 3.055-1.08 1.77-4.053 3.193-6.381 3.738l-0.643 10.783c-0.07 1.183 0.705 2.149 1.723 2.149h21.958c1.018 0 1.792-0.967 1.721-2.149l-0.642-10.785zm-15.647 7.426h-2.062c-0.38 0-0.688-0.309-0.688-0.688s0.308-0.688 0.688-0.688h2.062c0.379 0 0.688 0.309 0.688 0.688s-0.309 0.688-0.688 0.688zm0-2.622h-2.062c-0.38 0-0.688-0.308-0.688-0.687 0-0.382 0.308-0.688 0.688-0.688h2.062c0.379 0 0.688 0.306 0.688 0.688 0 0.379-0.309 0.687-0.688 0.687zm0-2.622h-2.062c-0.38 0-0.688-0.308-0.688-0.688 0-0.379 0.308-0.688 0.688-0.688h2.062c0.379 0 0.688 0.309 0.688 0.688s-0.309 0.688-0.688 0.688zm4.621 5.244h-2.061c-0.38 0-0.688-0.309-0.688-0.688s0.309-0.688 0.688-0.688h2.062c0.379 0 0.688 0.309 0.688 0.688-2e-3 0.379-0.31 0.688-0.689 0.688zm0-2.622h-2.061c-0.38 0-0.688-0.308-0.688-0.687 0-0.382 0.309-0.688 0.688-0.688h2.062c0.379 0 0.688 0.306 0.688 0.688-2e-3 0.379-0.31 0.687-0.689 0.687zm0-2.622h-2.061c-0.38 0-0.688-0.308-0.688-0.688 0-0.379 0.309-0.688 0.688-0.688h2.062c0.379 0 0.688 0.309 0.688 0.688-2e-3 0.379-0.31 0.688-0.689 0.688zm4.62 5.244h-2.062c-0.379 0-0.687-0.309-0.687-0.688s0.308-0.688 0.687-0.688h2.062c0.381 0 0.688 0.309 0.688 0.688s-0.306 0.688-0.688 0.688zm0-2.622h-2.062c-0.379 0-0.687-0.308-0.687-0.687 0-0.382 0.308-0.688 0.687-0.688h2.062c0.381 0 0.688 0.306 0.688 0.688 0 0.379-0.306 0.687-0.688 0.687zm0-2.622h-2.062c-0.379 0-0.687-0.308-0.687-0.688 0-0.379 0.308-0.688 0.687-0.688h2.062c0.381 0 0.688 0.309 0.688 0.688s-0.306 0.688-0.688 0.688zm11.448-8.407c-0.043 0.216-0.045 0.441-0.13 0.646-0.497 1.202-1.429 2.197-2.115 3.305-0.885 1.414-8.406-1.634-7.437-3.521 0.365-0.698 1.789-2.626 1.896-3.401 0.098-0.692-0.818-1.233-1.664-1.302-2.232-0.181-5.083-0.017-7.452-2e-3v2e-3c-0.063 0-0.133-1e-3 -0.198-1e-3 -0.064 0-0.134 1e-3 -0.197 1e-3v-2e-3c-2.369-0.015-5.22-0.178-7.452 2e-3 -0.846 0.069-1.762 0.61-1.665 1.302 0.108 0.775 1.531 2.703 1.896 3.401 0.971 1.887-6.55 4.935-7.435 3.521-0.688-1.108-1.618-2.103-2.116-3.305-0.084-0.205-0.086-0.43-0.129-0.646-1.104-4.93 3.148-9.96 9.551-10.476 2.445-0.198 4.896-0.31 7.35-0.354v-0.012c0.066 1e-3 0.131 5e-3 0.197 6e-3 0.065-1e-3 0.131-5e-3 0.198-6e-3v0.012c2.452 0.044 4.903 0.156 7.35 0.354 6.402 0.515 10.654 5.547 9.552 10.476z"/>
</svg>
